#!OML:ASF F:\VICON\USERDATA\INSTALL\Justin_Nancy\Justin_Nancy.ASF
:FULLY-SPECIFIED
:DEGREES
63
root -9.96317 15.2667 -3.19324 -15.8303 27.4904 -12.2287
lowerback 21.9522 -0.448802 3.88106
upperback 5.39918 0.972621 6.79321
thorax -6.41416 0.515352 4.9215
lowerneck -8.82725 -7.9536 -9.29479
upperneck 15.343 -10.3274 5.67366
head 6.92146 -5.05954 2.39093
rclavicle -9.93923e-016 -2.54444e-014
rhumerus -34.814 15.129 -85.0337
rradius 83.4353
rwrist -7.32815
rhand -16.1194 26.2012
rfingers 7.12502
rthumb 10.085 -3.53715
lclavicle -9.93923e-016 -2.54444e-014
lhumerus -51.1114 -10.9847 94.4131
lradius 102.029
lwrist 32.3197
lhand -25.7483 6.01799
lfingers 7.12502
lthumb 0.788826 35.9963
rfemur -18.7905 1.54107 8.18574
rtibia 41.3187
rfoot -7.27863 -0.701642
rtoes -29.0367
lfemur -38.9893 6.95548 -22.8362
ltibia 87.3287
lfoot -5.99873 -11.5929
ltoes -5.49571
64
root -9.89214 15.2455 -2.88636 -16.3172 28.4436 -12.3646
lowerback 22.431 -0.280664 3.85928
upperback 5.6073 1.22875 6.85556
thorax -6.45196 0.644987 4.93757
lowerneck -8.8539 -8.17814 -8.9186
upperneck 15.1088 -10.5897 5.16351
head 6.82216 -5.20356 2.14361
rclavicle 5.76476e-014 -2.06736e-014
rhumerus -34.2725 15.3753 -85.2682
rradius 82.4731
rwrist -8.0088
rhand -15.0076 26.7395
rfingers 7.12502
rthumb 11.1574 -2.94387
lclavicle 5.76476e-014 -2.06736e-014
lhumerus -50.3341 -11.4353 94.9974
lradius 100.089
lwrist 32.5941
lhand -25.5367 6.06033
lfingers 7.12502
lthumb 0.993201 36.0378
rfemur -18.2985 1.21482 8.18233
rtibia 43.3299
rfoot -8.7986 1.13202
rtoes -26.2129
lfemur -39.3818 7.62355 -23.0278
ltibia 86.9796
lfoot -7.51601 -10.863
ltoes -8.13079
65
root -9.81464 15.2042 -2.58547 -16.9942 29.7158 -12.4605
lowerback 23.0824 -0.211984 3.85199
upperback 5.91343 1.37292 6.94767
thorax -6.46309 0.72198 5.00935
lowerneck -8.89175 -8.41708 -8.74966
upperneck 14.8029 -10.8738 4.8658
head 6.72481 -5.35319 1.99562
rclavicle 6.16232e-015 -6.67916e-014
rhumerus -33.1809 15.967 -85.219
rradius 81.3597
rwrist -8.58793
rhand -13.0362 26.7588
rfingers 7.12502
rthumb 13.0583 -2.8124
lclavicle 6.16232e-015 -6.67916e-014
lhumerus -49.5102 -11.5565 95.6435
lradius 98.0623
lwrist 32.0918
lhand -25.9111 6.50655
lfingers 7.12502
lthumb 0.631623 36.4854
rfemur -17.0534 0.411006 7.92221
rtibia 44.9154
rfoot -9.82658 -1.98841
rtoes -30.123
lfemur -39.7779 7.99164 -23.553
ltibia 86.6061
lfoot -8.64304 -9.63225
ltoes -7.91409
66
root -9.7289 15.137 -2.2848 -17.6039 31.222 -12.233
lowerback 23.8512 -0.163238 3.65483
upperback 6.21024 1.45304 6.98279
thorax -6.54072 0.769883 5.14686
lowerneck -8.83622 -8.64797 -8.66498
upperneck 14.4869 -11.1799 4.79452
head 6.6264 -5.50249 1.93494
rclavicle -1.98785e-015 -3.73715e-014
rhumerus -31.9052 16.7588 -85.004
rradius 80.2045
rwrist -8.93325
rhand -12.0399 26.405
rfingers 7.12502
rthumb 14.0186 -3.10224
lclavicle -1.98785e-015 -3.73715e-014
lhumerus -48.8261 -11.433 96.3141
lradius 95.9483
lwrist 31.3164
lhand -26.2395 7.35926
lfingers 7.12502
lthumb 0.314392 37.3388
rfemur -15.3984 -0.798382 7.16303
rtibia 46.2731
rfoot -11.2761 -4.12014
rtoes -32.0996
lfemur -40.1462 8.21151 -24.6758
ltibia 86.1111
lfoot -9.69858 -8.3475
ltoes -7.44675
67
root -9.63282 15.0824 -1.99665 -17.6286 32.5811 -12.0637
lowerback 24.3093 -0.0576522 3.63672
upperback 6.22487 1.63701 7.0073
thorax -6.77207 0.864068 5.13727
lowerneck -8.78431 -8.92384 -8.80566
upperneck 14.3266 -11.5692 5.02612
head 6.61587 -5.68033 1.99226
rclavicle 8.3092e-014 -1.66979e-014
rhumerus -30.8308 17.5182 -84.8756
rradius 79.1144
rwrist -8.44519
rhand -12.5266 26.2077
rfingers 7.12502
rthumb 13.5495 -3.33142
lclavicle 8.3092e-014 -1.66979e-014
lhumerus -48.6299 -11.2304 96.9581
lradius 93.9667
lwrist 30.6884
lhand -25.8283 7.85086
lfingers 7.12502
lthumb 0.711616 37.8294
rfemur -14.258 -2.29412 6.53384
rtibia 47.4792
rfoot -14.0769 -2.70762
rtoes -34.0266
lfemur -41.2092 8.5721 -25.9295
ltibia 85.5257
lfoot -10.5531 -7.12658
ltoes -6.39385
68
root -9.51202 15.0596 -1.73152 -16.7379 33.6491 -11.3736
lowerback 24.2016 0.171343 3.37581
upperback 6.16499 1.86477 6.94581
thorax -6.80521 0.978749 5.14968
lowerneck -9.0897 -9.21955 -9.24716
upperneck 14.4299 -11.916 5.23207
head 6.7675 -5.84713 2.0694
rclavicle 1.41137e-014 -2.46493e-014
rhumerus -29.565 18.5108 -84.6585
rradius 78.0438
rwrist -7.20882
rhand -13.1965 26.0092
rfingers 7.12502
rthumb 12.9038 -3.57187
lclavicle 1.41137e-014 -2.46493e-014
lhumerus -48.3956 -10.6939 97.5443
lradius 91.9939
lwrist 30.5277
lhand -24.9793 6.94016
lfingers 7.12502
lthumb 1.53158 36.9144
rfemur -13.8115 -3.86867 5.43968
rtibia 48.4524
rfoot -15.6787 -2.46591
rtoes -34.8539
lfemur -42.8667 9.12992 -27.8739
ltibia 84.763
lfoot -11.1471 -5.70649
ltoes -6.76168
69
root -9.38104 15.0567 -1.4455 -16.7764 33.9608 -11.8427
lowerback 23.8994 0.446209 3.63845
upperback 6.43704 2.29068 7.35761
thorax -6.3873 1.19084 5.32604
lowerneck -9.35255 -9.47195 -9.56202
upperneck 14.2688 -12.1793 5.22994
head 6.80113 -5.98478 2.07625
rclavicle -4.35338e-014 5.56597e-015
rhumerus -27.7955 19.7665 -84.0904
rradius 76.9495
rwrist -5.68357
rhand -13.0537 25.8571
rfingers 7.12502
rthumb 13.0415 -3.71526
lclavicle -4.35338e-014 5.56597e-015
lhumerus -48.1262 -9.83393 98.1293
lradius 90.1634
lwrist 30.9894
lhand -24.9817 6.10903
lfingers 7.12502
lthumb 1.52921 36.0833
rfemur -12.9905 -4.68176 5.76931
rtibia 49.1159
rfoot -16.4889 -2.96053
rtoes -33.7995
lfemur -43.9723 10.2232 -28.3825
ltibia 83.8776
lfoot -11.521 -4.43972
ltoes -6.32062
70
root -9.25538 15.0353 -1.14029 -17.9328 33.6572 -13.539
lowerback 24.0119 0.726172 4.8118
upperback 6.73667 2.99871 8.02873
thorax -6.14116 1.53854 5.19219
lowerneck -9.10987 -9.69149 -9.44099
upperneck 13.8011 -12.4716 5.06812
head 6.61293 -6.13732 1.99479
rclavicle 6.48038e-014 -1.82882e-014
rhumerus -26.531 21.5463 -83.9769
rradius 76.3825
rwrist -7.07291
rhand -13.8636 24.7716
rfingers 7.12502
rthumb 12.2606 -4.84904
lclavicle 6.48038e-014 -1.82882e-014
lhumerus -48.2579 -9.16301 98.6101
lradius 88.5867
lwrist 32.46
lhand -26.4273 6.9404
lfingers 7.12502
lthumb 0.133083 36.9201
rfemur -11.5462 -4.89779 7.5147
rtibia 49.4512
rfoot -17.761 -3.24702
rtoes -33.5344
lfemur -44.6837 11.439 -27.4885
ltibia 83.0312
lfoot -11.803 -3.29648
ltoes -4.39458
71
root -9.12289 15.0163 -0.851757 -18.4947 33.8118 -14.4211
lowerback 24.2637 0.964744 5.52538
upperback 6.8258 3.54424 8.40014
thorax -6.18539 1.80574 5.03774
lowerneck -8.87519 -9.93609 -9.30995
upperneck 13.428 -12.8094 4.94735
head 6.46149 -6.30794 1.91949
rclavicle 4.69132e-014 -5.08889e-014
rhumerus -25.3455 22.977 -83.8362
rradius 76.1347
rwrist -7.5676
rhand -13.1551 24.3638
rfingers 7.12502
rthumb 12.9437 -5.21472
lclavicle 4.69132e-014 -5.08889e-014
lhumerus -48.6904 -8.43506 98.9981
lradius 87.2609
lwrist 34.5376
lhand -28.4877 8.22975
lfingers 7.12502
lthumb -1.85697 38.2014
rfemur -10.0184 -5.32243 8.254
rtibia 49.3985
rfoot -19.1942 -3.26929
rtoes -34.0137
lfemur -45.4683 12.1958 -27.6783
ltibia 81.9448
lfoot -11.8741 -2.29609
ltoes -1.85475
72
root -8.96851 15.0386 -0.590279 -18.1756 34.6173 -14.1238
lowerback 24.4645 1.21886 5.37402
upperback 6.75558 3.88218 8.49614
thorax -6.40198 1.97142 5.1296
lowerneck -8.86275 -10.1629 -9.55956
upperneck 13.4142 -13.0905 5.01563
head 6.49749 -6.44982 1.94662
rclavicle 6.63941e-014 -5.08889e-014
rhumerus -24.2476 24.1703 -83.5299
rradius 76.3477
rwrist -7.59296
rhand -12.1206 24.5059
rfingers 7.12502
rthumb 13.9408 -5.00671
lclavicle 6.63941e-014 -5.08889e-014
lhumerus -49.5421 -7.65283 99.3826
lradius 86.354
lwrist 36.5397
lhand -29.9597 9.28094
lfingers 7.12502
lthumb -3.27857 39.2355
rfemur -8.53532 -6.1885 7.57406
rtibia 48.959
rfoot -19.8305 -3.44461
rtoes -33.9048
lfemur -46.0704 12.5474 -29.2574
ltibia 80.5045
lfoot -11.6639 -1.8122
ltoes 1.66891
